<?xml version="1.0" standalone="no"?>
<!DOCTYPE svg PUBLIC "-//W3C//DTD SVG 1.1//EN" "http://www.w3.org/Graphics/SVG/1.1/DTD/svg11.dtd">
<svg width="142mm" height="50mm" viewBox="-68 -25 142 50" xmlns="http://www.w3.org/2000/svg" version="1.1">
<title>OpenSCAD Model</title>
<path d="
M 74,-25 L 54,-25 L 54,25 L 74,25 z
M 49.9017,4.69006 L 50,-0 L 49.9017,-4.69006 L 49.725,-7.5 L -60,-7.5 L -60,-7.49835
 L -60.1571,-7.49835 L -60.4709,-7.4852 L -60.784,-7.45891 L -61.0956,-7.41954 L -61.4053,-7.36714 L -61.7126,-7.30183
 L -62.0169,-7.22371 L -62.3176,-7.13292 L -62.6143,-7.0296 L -62.9064,-6.91397 L -63.1933,-6.78619 L -63.4747,-6.64651
 L -63.75,-6.49518 L -64.0187,-6.33246 L -64.2803,-6.15862 L -64.5345,-5.97397 L -64.7807,-5.77884 L -65.0185,-5.57358
 L -65.2475,-5.35854 L -65.4673,-5.13409 L -65.6775,-4.90065 L -65.8777,-4.6586 L -66.0676,-4.40839 L -66.2469,-4.15044
 L -66.4152,-3.88519 L -66.5723,-3.61314 L -66.7178,-3.33476 L -66.8516,-3.05052 L -66.9733,-2.76093 L -67.0828,-2.46649
 L -67.1799,-2.16772 L -67.2644,-1.86517 L -67.3361,-1.55933 L -67.395,-1.25076 L -67.4409,-0.939987 L -67.4737,-0.627579
 L -67.4934,-0.314056 L -67.5,-0 L -67.4934,0.314056 L -67.4737,0.627579 L -67.4409,0.939987 L -67.395,1.25076
 L -67.3361,1.55933 L -67.2644,1.86517 L -67.1799,2.16772 L -67.0828,2.46649 L -66.9733,2.76093 L -66.8516,3.05052
 L -66.7178,3.33476 L -66.5723,3.61314 L -66.4152,3.88519 L -66.2469,4.15044 L -66.0676,4.40839 L -65.8777,4.6586
 L -65.6775,4.90065 L -65.4673,5.13409 L -65.2475,5.35854 L -65.0185,5.57358 L -64.7807,5.77884 L -64.5345,5.97397
 L -64.2803,6.15862 L -64.0187,6.33246 L -63.75,6.49518 L -63.4747,6.64651 L -63.1933,6.78619 L -62.9064,6.91397
 L -62.6143,7.0296 L -62.3176,7.13292 L -62.0169,7.22371 L -61.7126,7.30183 L -61.4053,7.36714 L -61.0956,7.41954
 L -60.784,7.45891 L -60.4709,7.4852 L -60.1571,7.49835 L -60,7.49835 L -60,7.5 L 49.725,7.5
 z
M -60.0419,1.99956 L -60.1256,1.99605 L -60.209,1.98903 L -60.2922,1.97853 L -60.3748,1.96457 L -60.4567,1.94714
 L -60.5378,1.92632 L -60.618,1.9021 L -60.6971,1.87456 L -60.775,1.84372 L -60.8515,1.80965 L -60.9266,1.7724
 L -61,1.73204 L -61.0717,1.68864 L -61.1414,1.64229 L -61.2092,1.59305 L -61.2748,1.54102 L -61.3383,1.48628
 L -61.3993,1.42894 L -61.4579,1.36908 L -61.514,1.30684 L -61.5674,1.24229 L -61.618,1.17557 L -61.6658,1.10678
 L -61.7107,1.03604 L -61.7526,0.963501 L -61.7914,0.889267 L -61.8271,0.813461 L -61.8595,0.736237 L -61.8887,0.65773
 L -61.9146,0.578049 L -61.9372,0.497375 L -61.9563,0.415817 L -61.972,0.333527 L -61.9842,0.250656 L -61.993,0.167343
 L -61.9982,0.0837402 L -62,-0 L -61.9982,-0.0837402 L -61.993,-0.167343 L -61.9842,-0.250656 L -61.972,-0.333527
 L -61.9563,-0.415817 L -61.9372,-0.497375 L -61.9146,-0.578049 L -61.8887,-0.65773 L -61.8595,-0.736237 L -61.8271,-0.813461
 L -61.7914,-0.889267 L -61.7526,-0.963501 L -61.7107,-1.03604 L -61.6658,-1.10678 L -61.618,-1.17557 L -61.5674,-1.24229
 L -61.514,-1.30684 L -61.4579,-1.36908 L -61.3993,-1.42894 L -61.3383,-1.48628 L -61.2748,-1.54102 L -61.2092,-1.59305
 L -61.1414,-1.64229 L -61.0717,-1.68864 L -61,-1.73204 L -60.9266,-1.7724 L -60.8515,-1.80965 L -60.775,-1.84372
 L -60.6971,-1.87456 L -60.618,-1.9021 L -60.5378,-1.92632 L -60.4567,-1.94714 L -60.3748,-1.96457 L -60.2922,-1.97853
 L -60.209,-1.98903 L -60.1256,-1.99605 L -60.0419,-1.99956 L -59.9581,-1.99956 L -59.8744,-1.99605 L -59.7909,-1.98903
 L -59.7078,-1.97853 L -59.6252,-1.96457 L -59.5433,-1.94714 L -59.4622,-1.92632 L -59.382,-1.9021 L -59.3029,-1.87456
 L -59.225,-1.84372 L -59.1484,-1.80965 L -59.0734,-1.7724 L -59,-1.73204 L -58.9283,-1.68864 L -58.8586,-1.64229
 L -58.7908,-1.59305 L -58.7251,-1.54102 L -58.6617,-1.48628 L -58.6007,-1.42894 L -58.5421,-1.36908 L -58.486,-1.30684
 L -58.4326,-1.24229 L -58.382,-1.17557 L -58.3342,-1.10678 L -58.2893,-1.03604 L -58.2474,-0.963501 L -58.2086,-0.889267
 L -58.1729,-0.813461 L -58.1404,-0.736237 L -58.1112,-0.65773 L -58.0854,-0.578049 L -58.0628,-0.497375 L -58.0437,-0.415817
 L -58.028,-0.333527 L -58.0158,-0.250656 L -58.007,-0.167343 L -58.0018,-0.0837402 L -58,-0 L -58.0018,0.0837402
 L -58.007,0.167343 L -58.0158,0.250656 L -58.028,0.333527 L -58.0437,0.415817 L -58.0628,0.497375 L -58.0854,0.578049
 L -58.1112,0.65773 L -58.1404,0.736237 L -58.1729,0.813461 L -58.2086,0.889267 L -58.2474,0.963501 L -58.2893,1.03604
 L -58.3342,1.10678 L -58.382,1.17557 L -58.4326,1.24229 L -58.486,1.30684 L -58.5421,1.36908 L -58.6007,1.42894
 L -58.6617,1.48628 L -58.7251,1.54102 L -58.7908,1.59305 L -58.8586,1.64229 L -58.9283,1.68864 L -59,1.73204
 L -59.0734,1.7724 L -59.1484,1.80965 L -59.225,1.84372 L -59.3029,1.87456 L -59.382,1.9021 L -59.4622,1.92632
 L -59.5433,1.94714 L -59.6252,1.96457 L -59.7078,1.97853 L -59.7909,1.98903 L -59.8744,1.99605 L -59.9581,1.99956
 z
" stroke="black" fill="lightgray" stroke-width="0.5"/>
</svg>
